<?xml version="1.0" standalone="no"?>
<!DOCTYPE svg PUBLIC "-//W3C//DTD SVG 20010904//EN"
 "http://www.w3.org/TR/2001/REC-SVG-20010904/DTD/svg10.dtd">
<svg version="1.0" xmlns="http://www.w3.org/2000/svg"
 width="5676.000000pt" height="4223.000000pt" viewBox="0 0 5676.000000 4223.000000"
 preserveAspectRatio="xMidYMid meet">

<g transform="translate(0.000000,4223.000000) scale(0.100000,-0.100000)"
fill="#000000" stroke="none">
<path d="M20485 41295 c-356 -54 -698 -209 -1027 -465 -125 -97 -431 -407
-552 -560 -649 -817 -1154 -2062 -1465 -3615 -184 -916 -286 -1777 -352 -2980
-17 -315 -23 -1479 -10 -1818 32 -784 103 -1478 217 -2111 270 -1498 778
-2688 1458 -3413 47 -50 86 -94 86 -97 0 -3 -46 -61 -103 -128 -738 -881
-1340 -1847 -1652 -2648 -96 -247 -225 -673 -225 -744 0 -48 32 -128 67 -167
56 -61 105 -83 188 -84 79 0 75 -2 342 163 l132 81 -98 -198 c-369 -746 -604
-1530 -690 -2296 -60 -533 -62 -1213 -5 -1785 52 -529 182 -1131 317 -1476
l24 -60 -81 3 c-204 9 -15914 563 -16016 565 -91 1 -124 -2 -158 -16 -52 -22
-124 -101 -140 -153 -12 -42 -35 -308 -51 -618 -49 -884 -47 -2196 4 -3575 98
-2639 369 -6088 776 -9885 104 -974 137 -1242 157 -1288 24 -54 75 -105 131
-130 40 -17 938 -66 11165 -605 l11121 -585 4415 392 c3924 348 4420 394 4457
412 48 23 109 86 129 135 18 44 18 131 -1 185 -23 66 -108 213 -180 314 -35
49 -61 92 -57 96 4 3 41 11 82 18 114 18 381 85 526 131 378 122 742 297 1077
516 l128 84 102 -29 c247 -72 625 -157 977 -220 1263 -227 2601 -276 3920
-145 140 14 390 43 555 64 546 71 1024 120 1565 160 1512 110 3343 126 4980
44 298 -15 352 -15 391 1 14 5 22 -9 43 -73 33 -98 95 -223 161 -322 78 -118
278 -312 415 -403 377 -249 867 -392 1595 -463 219 -21 842 -30 1061 -15 868
61 1645 308 2184 696 147 106 168 133 239 295 266 605 587 1218 1106 2110 506
869 721 1303 910 1835 295 832 375 1646 240 2439 -9 50 -32 164 -52 254 l-36
163 23 16 c62 44 205 169 294 259 420 423 671 952 742 1564 22 193 15 524 -16
724 -89 587 -358 1155 -788 1671 -108 129 -386 403 -532 525 -676 563 -1359
898 -2040 1001 -178 27 -533 32 -699 10 l-104 -14 -135 144 c-291 311 -715
720 -1047 1010 -952 832 -2028 1549 -3180 2119 -2167 1071 -4510 1696 -6387
1704 -168 0 -305 3 -303 7 2 3 9 138 14 300 10 277 5 559 -15 839 l-7 96 99
59 c764 455 1595 1209 2289 2075 1087 1357 1914 3065 2424 5005 238 907 460
2114 550 2990 150 1454 49 2542 -303 3280 -244 510 -590 841 -1066 1018 -466
173 -1068 156 -1755 -50 -1199 -359 -2945 -1450 -4605 -2877 -998 -858 -2049
-1921 -2844 -2876 -76 -91 -143 -169 -150 -174 -9 -6 -34 8 -82 45 -511 404
-1260 817 -1997 1101 -1754 676 -3725 830 -5812 453 -170 -30 -514 -102 -715
-148 l-55 -12 -121 370 c-832 2543 -1863 5078 -2719 6690 -453 851 -920 1583
-1316 2060 -113 137 -392 413 -517 513 -339 270 -665 430 -1030 503 -138 28
-451 35 -587 14z m495 -511 c265 -50 542 -187 810 -400 119 -95 366 -346 486
-494 732 -906 1579 -2492 2439 -4570 538 -1301 1154 -2990 1596 -4380 l71
-225 52 -50 c85 -84 142 -91 326 -45 65 17 123 30 129 30 13 0 33 -68 76 -261
220 -986 231 -2269 30 -3679 -52 -365 -87 -558 -279 -1545 -273 -1405 -352
-1785 -463 -2220 -239 -946 -474 -1352 -856 -1480 -123 -41 -244 -53 -602 -59
-649 -11 -739 -35 -1170 -306 -372 -235 -695 -414 -1091 -607 -253 -122 -399
-183 -527 -218 -431 -116 -692 3 -992 455 -129 193 -233 386 -550 1025 -388
779 -544 1068 -799 1485 -209 341 -576 868 -673 966 -122 122 -327 86 -399
-71 -27 -58 -32 -147 -10 -199 7 -18 72 -111 143 -207 243 -325 464 -663 688
-1054 182 -318 311 -564 619 -1185 358 -722 473 -929 652 -1166 206 -275 414
-442 658 -529 149 -54 253 -68 431 -62 283 11 480 70 900 269 410 195 778 397
1180 648 121 76 244 149 273 164 126 64 299 86 682 86 135 0 299 5 365 11 384
33 665 163 905 416 204 215 356 499 500 933 160 479 279 994 540 2340 72 371
155 799 185 950 194 985 286 1694 326 2505 15 314 6 1092 -15 1350 -43 509
-116 967 -205 1288 -17 60 -17 67 -2 71 108 31 707 127 1006 161 502 57 752
70 1320 69 531 0 696 -8 1125 -55 706 -76 1461 -248 2095 -476 215 -77 336
-126 333 -134 -2 -3 -39 -34 -83 -67 -215 -162 -489 -427 -691 -669 -568 -684
-1021 -1538 -1380 -2608 -285 -851 -450 -1589 -688 -3075 -237 -1484 -309
-2537 -216 -3173 85 -574 332 -904 735 -981 44 -8 166 -20 270 -25 283 -15
508 -63 763 -163 366 -143 738 -403 992 -693 302 -344 502 -702 682 -1220 121
-350 216 -581 333 -816 392 -781 895 -1234 1522 -1370 124 -26 442 -37 589
-20 718 84 1557 554 2477 1384 48 44 87 77 87 74 0 -3 -29 -72 -64 -154 -471
-1094 -1227 -2336 -2061 -3385 -59 -73 -107 -144 -113 -167 -26 -87 -9 -169
51 -237 56 -64 107 -88 187 -88 108 -1 146 27 299 218 636 797 1308 1842 1763
2740 64 127 93 175 98 165 5 -8 29 -73 53 -144 139 -406 231 -962 266 -1605
13 -222 18 -380 14 -380 -2 0 -101 75 -221 167 -119 93 -237 178 -261 191 -56
28 -148 30 -206 3 -50 -23 -119 -96 -134 -144 -16 -47 -16 -72 -3 -252 35
-495 -90 -1056 -349 -1565 -187 -366 -389 -641 -708 -961 -170 -170 -373 -352
-422 -379 -13 -7 -32 55 -128 423 -62 238 -122 452 -133 477 -80 186 -340 202
-442 27 -14 -23 -32 -77 -41 -120 -48 -234 -203 -565 -408 -872 -207 -311
-439 -586 -759 -900 -864 -850 -2123 -1658 -3688 -2370 -326 -149 -356 -170
-386 -271 -29 -101 -2 -189 80 -261 85 -75 165 -81 300 -24 793 339 1798 878
2496 1338 675 446 1121 803 1601 1282 400 401 659 723 886 1103 48 81 89 144
90 140 2 -4 32 -119 68 -257 37 -137 73 -261 82 -275 70 -112 213 -157 323
-100 57 29 244 163 386 276 322 256 638 578 870 884 435 574 709 1253 777
1928 l12 120 220 -170 c121 -93 233 -176 249 -185 39 -21 123 -27 173 -14 61
17 123 68 155 130 l28 53 0 352 c0 907 -93 1673 -275 2270 -73 240 -190 501
-275 613 l-39 52 50 118 c66 158 199 510 246 655 21 65 40 117 43 118 3 0 45
-127 95 -282 101 -316 117 -348 207 -392 122 -61 267 -16 331 102 63 116 247
639 351 997 140 484 251 991 317 1447 l22 156 30 6 c48 10 517 7 717 -4 1609
-89 3395 -563 5235 -1387 2681 -1202 4886 -3132 6332 -5543 308 -513 604
-1097 828 -1635 164 -393 354 -929 464 -1312 44 -151 48 -176 39 -210 -19 -69
5 -157 59 -215 19 -20 33 -58 54 -148 256 -1080 79 -2136 -568 -3380 -120
-231 -256 -473 -473 -845 -485 -829 -820 -1466 -1084 -2057 -55 -121 -66 -141
-108 -172 -138 -106 -460 -271 -683 -351 -527 -190 -1119 -277 -1760 -261
-835 20 -1448 154 -1820 396 -101 66 -258 224 -308 310 -97 168 -132 315 -132
560 1 246 44 486 144 785 164 494 926 2237 1337 3056 60 121 66 139 67 194 0
94 -47 173 -129 217 -69 36 -121 43 -189 23 -102 -29 -121 -55 -284 -385 -305
-615 -738 -1588 -1098 -2465 -233 -568 -334 -943 -350 -1293 l-6 -134 -51 6
c-60 7 -610 32 -1026 46 -494 18 -1837 24 -2375 11 -1371 -32 -2392 -105
-3515 -251 -723 -94 -1257 -130 -1925 -130 -780 0 -1505 60 -2255 185 -261 44
-696 132 -793 161 -14 5 -3 21 59 87 91 96 113 140 114 220 0 98 -45 175 -132
223 -43 23 -65 29 -118 28 -81 0 -131 -24 -198 -95 -64 -70 -279 -259 -293
-259 -20 0 -378 107 -501 149 -437 151 -691 300 -768 452 -107 208 -51 503
228 1199 246 616 347 1014 359 1425 6 199 -3 305 -35 431 l-18 69 116 79 c373
255 835 640 882 734 31 64 31 160 1 218 -46 86 -138 144 -231 144 -69 0 -120
-29 -236 -133 -506 -453 -1136 -866 -1916 -1256 -575 -287 -1076 -499 -2090
-886 -826 -314 -950 -372 -1103 -515 -260 -243 -415 -620 -457 -1109 -9 -108
-13 -127 -35 -152 -27 -33 -42 -78 -51 -155 l-6 -51 -229 -7 c-125 -4 -308 -4
-406 -1 -238 7 -633 17 -658 16 -11 -1 -117 4 -235 10 -118 6 -239 10 -267 9
-31 0 -53 3 -53 9 0 6 -31 10 -77 10 -43 0 -104 4 -135 9 -32 5 -58 6 -58 2 0
-4 -22 -3 -50 1 -27 4 -91 10 -142 13 -101 6 -194 13 -303 21 -38 3 -97 7
-130 10 -70 5 -159 12 -248 20 -34 3 -69 6 -77 7 -19 0 -298 26 -370 34 -30 3
-66 5 -79 5 -13 -1 -29 3 -35 8 -11 9 -125 24 -171 22 -11 0 -35 4 -52 9 -18
4 -33 5 -33 0 0 -5 -15 -4 -32 1 -18 5 -57 11 -88 14 -30 3 -75 7 -100 10 -25
3 -65 8 -90 10 -25 2 -63 6 -85 9 -22 3 -62 8 -90 11 -50 6 -71 8 -175 19 -30
3 -73 9 -95 13 -22 4 -48 6 -58 4 -14 -2 -18 4 -17 31 0 18 -2 47 -5 63 -5 24
-225 3205 -225 3246 0 6 35 -43 78 -110 285 -451 668 -853 1075 -1129 132 -90
160 -102 237 -102 73 0 114 16 168 64 58 53 86 124 79 204 -8 98 -39 139 -176
233 -526 358 -946 871 -1242 1521 -141 307 -282 724 -331 978 -4 25 -116 1622
-248 3550 -132 1928 -245 3522 -251 3544 -13 46 -79 121 -132 147 -22 12 -68
22 -105 25 -37 3 -1214 45 -2617 94 -1402 49 -2579 91 -2614 92 l-64 3 -33 78
c-204 477 -341 1155 -385 1902 -13 224 -7 870 10 1075 55 640 188 1211 424
1815 204 523 516 1098 823 1522 87 119 104 155 104 219 0 69 -19 120 -62 169
-57 65 -112 88 -201 83 l-72 -3 -363 -224 c-200 -123 -365 -222 -367 -220 -13
14 219 510 351 752 346 631 876 1375 1405 1973 108 121 138 175 139 243 0 103
-32 149 -208 294 -230 190 -508 571 -733 1002 -740 1423 -1059 3611 -914 6285
134 2458 626 4449 1413 5716 168 271 349 499 554 700 335 329 659 498 1048
548 65 8 274 -3 360 -20z m23345 -5504 c585 -80 975 -454 1200 -1150 85 -265
140 -562 177 -965 17 -187 17 -980 0 -1215 -53 -718 -147 -1393 -303 -2190
-311 -1580 -703 -2785 -1299 -3985 -465 -936 -985 -1720 -1629 -2455 -153
-175 -592 -619 -752 -761 -425 -378 -864 -699 -1222 -890 -138 -73 -188 -121
-211 -200 -15 -48 -15 -67 -1 -194 80 -743 25 -1572 -166 -2485 -59 -281 -236
-948 -258 -972 -4 -4 -56 146 -116 335 -122 379 -133 402 -224 449 -121 63
-275 16 -336 -102 -8 -15 -32 -104 -54 -197 -22 -92 -47 -202 -57 -243 l-18
-75 -300 -300 c-166 -166 -373 -365 -460 -444 -816 -733 -1491 -1142 -2093
-1267 -108 -23 -155 -27 -298 -28 -187 -1 -268 10 -410 55 -197 62 -367 171
-545 349 -317 315 -552 747 -805 1480 -85 246 -164 434 -264 625 -392 756
-975 1297 -1710 1586 -305 120 -596 182 -940 198 -238 12 -296 35 -365 145
-219 344 -228 1247 -26 2741 83 614 228 1486 346 2080 389 1962 1100 3507
2026 4401 153 147 325 284 458 364 50 30 112 69 138 86 l47 31 135 -70 c482
-250 875 -507 1218 -795 147 -124 192 -147 272 -139 31 2 75 14 98 26 44 23
48 27 276 306 663 815 1621 1813 2499 2603 1110 999 2239 1830 3347 2464 833
476 1565 750 2161 808 111 10 351 5 464 -10z m-34992 -18615 l8052 -285 54
-27 c69 -35 156 -37 217 -5 l41 21 2518 -89 c1385 -49 2520 -92 2524 -95 3 -3
223 -3161 488 -7018 338 -4901 481 -7035 477 -7087 -3 -41 -8 -96 -9 -122 -2
-26 -6 -52 -10 -58 -3 -5 -1 -19 5 -30 9 -16 8 -25 -1 -36 -6 -8 -7 -14 -2
-14 10 0 38 -88 30 -96 -3 -3 1 -17 8 -31 9 -17 10 -34 5 -54 -6 -20 -4 -47 6
-82 14 -50 48 -417 39 -425 -4 -5 -21685 1135 -21690 1140 -8 8 -170 1518
-269 2513 -545 5450 -761 9746 -610 12068 l7 97 34 0 c19 0 3657 -128 8086
-285z m43322 -2135 c556 -96 1138 -392 1725 -878 157 -130 394 -370 520 -527
342 -426 552 -893 627 -1392 22 -150 22 -480 -1 -628 -37 -242 -100 -445 -201
-650 -107 -217 -229 -387 -403 -559 l-90 -89 -36 119 c-491 1603 -1341 3186
-2419 4503 l-110 134 134 -6 c74 -3 188 -15 254 -27z m-19279 -7810 c-9 -222
-51 -443 -136 -725 -49 -162 -77 -239 -238 -650 -146 -374 -220 -617 -253
-830 -17 -114 -15 -334 5 -422 94 -423 445 -711 1151 -944 55 -18 104 -36 108
-39 10 -9 -285 -160 -437 -225 -232 -98 -547 -191 -796 -234 -151 -26 -265
-37 -555 -56 -132 -9 -418 -30 -635 -47 -330 -26 -446 -31 -705 -31 -336 0
-431 10 -429 46 1 9 -2 17 -6 17 -5 0 -11 13 -15 29 -11 51 -24 55 -147 45
l-112 -9 -70 40 c-249 143 -405 275 -508 430 -112 170 -232 464 -228 564 0 18
-8 52 -19 75 -11 22 -26 83 -34 134 -13 88 -13 96 4 132 22 45 31 96 29 163
-1 52 -5 66 -40 140 -20 43 -22 58 -16 130 34 416 188 737 408 848 98 50 347
150 759 307 1373 523 2058 828 2764 1230 l140 79 8 -36 c5 -20 6 -92 3 -161z
m-9116 -2868 c0 5 5 6 11 3 15 -10 115 -23 289 -39 36 -4 80 -9 99 -12 19 -3
52 -7 75 -9 81 -8 193 -19 301 -31 28 -3 65 -5 83 -4 17 0 32 -4 32 -9 0 -6
17 -10 38 -10 20 0 62 -2 92 -5 30 -3 80 -8 110 -10 30 -3 71 -8 90 -11 19 -3
63 -8 98 -10 34 -3 88 -7 120 -9 79 -7 174 -15 257 -21 251 -19 333 -25 585
-40 47 -3 121 -8 165 -11 44 -3 108 -5 143 -5 34 1 62 -3 62 -8 0 -5 27 -11
60 -13 33 -1 60 -1 60 2 0 3 23 5 50 5 28 0 50 -3 50 -7 0 -4 51 -8 113 -8 61
0 156 -4 210 -8 53 -4 97 -5 97 -2 0 3 51 2 112 -2 62 -4 262 -7 443 -7 182 0
398 -1 481 -1 l150 0 23 -52 c25 -58 77 -113 134 -142 24 -13 39 -28 43 -45
12 -54 56 -180 63 -183 5 -2 31 -48 59 -104 69 -137 177 -296 266 -391 l74
-78 -2516 -224 c-1383 -123 -2547 -223 -2586 -222 -38 1 -73 6 -76 11 -3 5
-18 204 -33 442 -15 238 -32 494 -39 568 -6 74 -13 158 -14 185 -2 28 -10 144
-18 259 -14 185 -14 212 -1 226 8 9 15 22 15 29 0 8 8 11 20 8 11 -3 20 -1 20
3 0 5 20 3 45 -4 26 -8 45 -10 45 -4z m5891 -1742 c217 -86 540 -121 929 -101
197 10 944 63 1067 76 46 4 52 3 58 -15 4 -12 45 -65 91 -118 64 -73 80 -98
67 -100 -10 -1 -1818 -162 -4018 -357 -2200 -195 -4014 -356 -4031 -359 l-31
-4 -9 148 c-6 98 -6 146 1 144 10 -4 55 58 55 76 0 5 9 10 19 10 11 0 21 3 23
8 2 4 19 15 38 24 19 9 46 24 60 32 15 8 82 19 165 27 77 7 151 13 165 14 147
14 379 49 435 66 57 17 507 60 2440 234 1304 117 2382 213 2397 214 15 0 51
-8 79 -19z"/>
<path d="M20550 39175 c-88 -16 -229 -64 -315 -107 -160 -80 -345 -234 -492
-410 -198 -238 -392 -604 -539 -1016 -270 -759 -439 -1713 -529 -2992 -22
-311 -30 -975 -16 -1285 41 -867 166 -1718 386 -2620 246 -1012 631 -2103
1043 -2956 66 -135 89 -173 124 -203 52 -45 133 -71 192 -62 96 16 94 13 857
829 804 859 786 837 776 946 -6 65 -32 124 -74 163 -15 14 -129 92 -253 173
l-225 148 700 -9 c385 -4 743 -8 795 -8 86 -1 99 2 141 26 89 52 132 125 132
223 0 54 -15 98 -153 440 -84 209 -155 388 -157 397 -4 13 20 7 123 -31 337
-126 673 -295 1213 -611 275 -161 344 -195 419 -210 109 -20 218 29 271 122
47 82 49 120 12 293 -113 525 -382 1632 -561 2300 -694 2596 -1417 4497 -2068
5439 -393 569 -904 940 -1407 1021 -110 18 -294 18 -395 0z m392 -514 c150
-39 301 -114 480 -241 315 -223 599 -614 937 -1290 525 -1052 1079 -2670 1625
-4740 146 -555 410 -1634 404 -1651 -2 -4 -75 33 -163 83 -585 331 -1096 543
-1530 633 -194 40 -260 33 -340 -37 -61 -54 -84 -105 -85 -185 0 -58 13 -95
171 -490 95 -236 174 -435 176 -443 4 -13 -89 -15 -814 -16 -450 -1 -904 -6
-1009 -11 -181 -9 -193 -11 -242 -38 -140 -76 -176 -251 -78 -380 14 -18 214
-155 475 -325 l451 -294 -53 -55 c-29 -31 -243 -260 -477 -509 l-424 -454 -19
38 c-10 20 -48 105 -84 188 -289 673 -550 1434 -743 2164 -326 1237 -481 2491
-442 3569 64 1731 365 3191 808 3923 215 355 440 541 709 583 54 9 190 -2 267
-22z"/>
<path d="M24458 23470 c-178 -30 -342 -120 -468 -257 -80 -87 -131 -174 -172
-293 -31 -90 -32 -103 -33 -240 0 -122 4 -158 23 -225 80 -279 305 -494 592
-566 119 -30 308 -24 425 15 354 115 581 442 562 806 -6 123 -24 197 -73 299
-89 190 -236 330 -428 410 -124 52 -299 72 -428 51z"/>
<path d="M26900 21334 c-19 -2 -84 -9 -145 -14 -209 -20 -429 -77 -570 -147
-413 -206 -528 -594 -359 -1208 256 -931 875 -1483 1744 -1556 119 -10 135 -9
271 16 735 134 1196 345 1539 701 166 173 288 360 391 600 94 220 124 356 116
537 -8 198 -65 326 -211 473 -308 309 -899 485 -1946 579 -162 15 -751 28
-830 19z"/>
<path d="M24166 20254 c-76 -24 -135 -90 -173 -194 -96 -265 -152 -626 -139
-905 20 -467 168 -849 456 -1180 127 -146 327 -310 503 -413 71 -41 77 -48 73
-71 -32 -157 -44 -1003 -18 -1291 53 -604 161 -1084 333 -1487 185 -434 450
-769 783 -993 222 -149 511 -252 811 -291 131 -16 420 -14 547 5 889 130 1556
821 1942 2013 97 300 193 710 227 967 8 63 17 96 25 96 46 0 287 37 429 65
305 62 544 142 795 266 311 154 545 334 748 574 186 221 342 530 342 677 -1
215 -250 325 -418 183 -37 -31 -61 -74 -87 -155 -49 -154 -170 -337 -319 -486
-249 -247 -581 -422 -1006 -529 -753 -190 -1404 -111 -1855 225 -240 179 -444
436 -548 690 -59 143 -138 210 -248 210 -84 0 -122 -18 -216 -98 -224 -193
-501 -330 -793 -394 -92 -20 -133 -23 -320 -22 -185 0 -230 3 -320 22 -395 86
-820 319 -1031 566 -157 184 -244 358 -300 601 -15 65 -22 140 -26 272 -8 260
17 434 98 691 44 139 45 148 23 221 -21 73 -92 144 -165 165 -64 19 -89 19
-153 0z m2731 -2887 c-3 -8 -19 -58 -35 -113 -157 -516 -232 -1048 -232 -1643
0 -297 6 -328 80 -401 47 -47 118 -80 175 -80 84 0 187 67 225 145 21 44 22
60 25 353 5 495 47 850 151 1267 34 134 116 401 136 437 7 15 20 4 84 -71 338
-403 858 -679 1402 -743 121 -14 113 5 77 -195 -169 -914 -506 -1637 -943
-2026 -268 -238 -567 -359 -918 -374 -563 -24 -1008 210 -1302 683 -353 569
-516 1498 -456 2590 l6 110 127 -32 c203 -52 331 -68 546 -68 205 0 331 15
505 59 95 24 291 89 320 106 22 12 33 11 27 -4z"/>
<path d="M24742 12344 c-125 -62 -176 -205 -118 -329 59 -129 448 -411 816
-594 394 -195 761 -306 1216 -368 189 -25 733 -25 929 0 504 66 933 191 1438
420 237 107 284 152 295 282 6 77 -23 149 -80 201 -53 47 -100 66 -168 67 -49
0 -76 -9 -222 -77 -478 -220 -911 -345 -1378 -397 -150 -17 -564 -17 -705 0
-526 63 -998 230 -1410 498 -119 78 -231 163 -307 232 -104 95 -204 116 -306
65z"/>
<path d="M43378 34010 c-734 -61 -1659 -571 -2834 -1566 -785 -664 -1731
-1617 -2673 -2694 -546 -623 -1287 -1528 -1353 -1651 -34 -63 -38 -151 -9
-215 12 -25 293 -340 755 -845 596 -651 746 -809 787 -831 127 -69 297 -6 350
129 4 12 40 195 79 405 39 211 72 387 73 392 4 12 91 -364 137 -594 93 -460
182 -1058 221 -1470 16 -179 50 -244 151 -294 95 -47 220 -25 289 50 15 16
109 164 209 329 100 165 188 306 194 313 10 10 16 -15 29 -115 50 -387 66
-667 77 -1353 5 -368 13 -614 20 -645 35 -157 166 -254 306 -225 62 13 111 44
339 215 361 272 629 508 1041 920 601 600 1027 1120 1493 1820 465 699 850
1431 1166 2220 310 772 571 1665 700 2389 79 446 105 700 112 1096 6 335 -2
494 -38 727 -154 1013 -752 1564 -1621 1493z m330 -515 c433 -70 700 -433 796
-1082 116 -776 -59 -1916 -493 -3223 -315 -945 -708 -1783 -1217 -2590 -475
-754 -1008 -1418 -1645 -2045 -257 -253 -379 -364 -624 -569 l-150 -124 -7
276 c-21 855 -79 1408 -204 1952 -42 179 -57 213 -118 267 -68 60 -150 77
-238 51 -76 -23 -117 -73 -294 -363 -92 -151 -171 -275 -176 -275 -4 0 -8 10
-8 23 0 42 -99 622 -145 847 -87 425 -183 804 -291 1148 -64 201 -153 452
-182 508 -98 190 -382 173 -456 -27 -8 -24 -65 -314 -126 -644 -61 -330 -113
-612 -116 -627 -5 -25 -42 13 -475 485 -258 281 -469 514 -469 517 0 8 319
403 546 676 1395 1679 2785 3071 3884 3890 655 489 1193 780 1650 893 211 52
387 63 558 36z"/>
<path d="M32208 22485 c-490 -93 -779 -582 -622 -1054 39 -118 96 -205 203
-312 82 -81 111 -103 191 -143 133 -65 228 -88 370 -88 249 0 467 105 627 302
209 257 232 634 57 921 -167 276 -514 433 -826 374z"/>
<path d="M10730 11221 c-109 -35 -195 -98 -267 -194 -280 -377 -207 -1062 148
-1391 162 -150 367 -202 541 -136 181 68 310 225 385 467 26 84 27 98 27 298
0 195 -2 217 -26 306 -59 216 -132 352 -258 480 -90 92 -174 145 -269 173 -73
21 -210 20 -281 -3z m236 -366 c80 -47 168 -182 212 -325 75 -244 36 -534 -88
-655 -72 -70 -157 -58 -250 36 -213 216 -256 712 -79 913 62 72 121 80 205 31z"/>
<path d="M12329 11221 c-269 -86 -488 -403 -539 -778 -18 -130 -8 -354 20
-458 47 -177 155 -347 270 -423 99 -66 159 -85 275 -86 119 -1 176 15 281 80
269 165 440 552 421 954 -8 158 -34 266 -97 395 -79 160 -182 259 -324 311
-84 30 -221 33 -307 5z m199 -345 c159 -84 221 -421 130 -706 -63 -197 -189
-340 -300 -340 -138 0 -249 267 -218 524 15 129 35 198 85 301 49 103 121 185
187 215 51 23 80 25 116 6z"/>
<path d="M9514 10116 c-179 -41 -317 -174 -388 -375 -27 -78 -30 -100 -34
-236 -3 -112 0 -173 12 -238 72 -380 338 -728 638 -835 88 -31 223 -41 307
-22 180 40 336 198 394 400 73 252 19 579 -140 848 -195 332 -518 520 -789
458z m198 -366 c152 -57 306 -257 374 -487 34 -117 38 -268 9 -362 -24 -80
-73 -135 -128 -145 -152 -28 -368 170 -467 426 -31 80 -60 222 -60 292 0 68
28 177 55 218 51 77 118 95 217 58z"/>
<path d="M13610 10114 c-35 -7 -101 -31 -145 -52 -260 -126 -467 -401 -557
-742 -29 -111 -36 -340 -14 -451 46 -227 197 -404 391 -455 67 -18 197 -18
270 1 318 81 614 443 691 843 21 112 18 339 -6 432 -58 223 -212 384 -407 425
-83 18 -138 18 -223 -1z m215 -384 c91 -89 109 -296 43 -500 -65 -203 -194
-372 -335 -442 -123 -60 -207 -40 -257 65 -132 273 74 780 366 900 28 11 62
16 96 14 44 -3 58 -9 87 -37z"/>
<path d="M11520 9343 c-14 -2 -54 -13 -90 -24 -211 -66 -381 -241 -625 -644
-137 -225 -206 -288 -533 -486 -282 -170 -409 -316 -469 -539 -23 -88 -23
-272 1 -360 59 -221 221 -403 435 -488 62 -25 76 -27 236 -27 198 0 221 5 615
130 549 174 627 173 1202 -9 323 -102 434 -126 585 -126 138 0 204 14 313 68
110 53 240 186 298 302 59 120 76 192 76 330 0 136 -17 210 -74 325 -80 163
-176 251 -460 425 -188 115 -304 203 -363 274 -21 26 -79 113 -129 194 -171
278 -278 417 -393 509 -82 66 -190 119 -283 139 -62 13 -280 17 -342 7z m336
-383 c104 -51 207 -178 394 -485 89 -147 139 -212 221 -291 90 -85 191 -158
359 -260 237 -143 299 -197 347 -299 24 -52 28 -72 28 -155 0 -82 -4 -103 -26
-151 -36 -76 -89 -133 -157 -166 -51 -25 -67 -28 -152 -27 -111 1 -196 21
-500 119 -615 198 -781 196 -1430 -13 -253 -82 -352 -105 -460 -106 -116 -1
-166 18 -239 93 -70 72 -95 140 -95 256 0 78 3 98 28 153 37 81 116 154 261
242 305 186 449 298 549 429 24 31 91 133 149 226 253 408 342 481 571 470 74
-3 100 -9 152 -35z"/>
</g>
</svg>
